<svg width="25" height="25" viewBox="0 0 25 25" fill="none" xmlns="http://www.w3.org/2000/svg">
  <path d="M20.8206 17.8045C20.916 17.8947 21.0283 17.9652 21.1511 18.0121C21.2738 18.0589 21.4045 18.0811 21.5358 18.0773C21.6671 18.0736 21.7964 18.0441 21.9163 17.9904C22.0362 17.9367 22.1443 17.86 22.2346 17.7645C22.3248 17.669 22.3953 17.5567 22.4421 17.434C22.4889 17.3113 22.5111 17.1805 22.5074 17.0492C22.5037 16.9179 22.4742 16.7886 22.4205 16.6687C22.3668 16.5488 22.29 16.4407 22.1946 16.3505L13.1946 7.85049C13.0089 7.67495 12.7631 7.57715 12.5076 7.57715C12.2521 7.57715 12.0062 7.67495 11.8206 7.85049L2.81956 16.3505C2.722 16.4401 2.64322 16.5482 2.58779 16.6686C2.53237 16.7889 2.50141 16.919 2.4967 17.0514C2.492 17.1838 2.51365 17.3158 2.5604 17.4398C2.60714 17.5637 2.67805 17.6772 2.769 17.7735C2.85996 17.8698 2.96915 17.9471 3.09022 18.0009C3.2113 18.0546 3.34185 18.0838 3.4743 18.0867C3.60675 18.0896 3.73845 18.0661 3.86175 18.0177C3.98505 17.9692 4.0975 17.8968 4.19256 17.8045L12.5076 9.95249L20.8206 17.8045Z" fill="#4C3A2A"/>
</svg>

